<svg width="100" height="100" viewBox="0 0 50 50" fill="none" xmlns="http://www.w3.org/2000/svg">
<g filter="url(#filter0_i_990_4117)">
<rect x="40" y="30.2617" width="42" height="20" rx="4" fill="url(#paint0_linear_990_4117)"/>
<rect x="40" y="30.2617" width="42" height="20" rx="4" fill="url(#paint1_linear_990_4117)" fill-opacity="0.8"/>
</g>
<g filter="url(#filter1_bdi_990_4117)">
<rect x="40" y="36.6807" width="42" height="28.75" rx="4" fill="url(#paint2_linear_990_4117)" shape-rendering="crispEdges"/>
</g>
<path d="M55.4371 61.5928V60.4848L58.0259 58.0878C58.2461 57.8747 58.4308 57.683 58.5799 57.5125C58.7314 57.3421 58.8462 57.1752 58.9244 57.0118C59.0025 56.8461 59.0415 56.6673 59.0415 56.4756C59.0415 56.2625 58.993 56.079 58.896 55.9252C58.7989 55.7689 58.6663 55.6494 58.4982 55.5665C58.3301 55.4813 58.1396 55.4387 57.9265 55.4387C57.704 55.4387 57.5098 55.4836 57.3441 55.5736C57.1784 55.6636 57.0505 55.7926 56.9606 55.9607C56.8706 56.1288 56.8256 56.3288 56.8256 56.5608H55.3661C55.3661 56.085 55.4738 55.6718 55.6893 55.3215C55.9047 54.9711 56.2066 54.7 56.5948 54.5083C56.9831 54.3165 57.4305 54.2206 57.9371 54.2206C58.458 54.2206 58.9113 54.3129 59.2972 54.4976C59.6855 54.6799 59.9873 54.9332 60.2028 55.2575C60.4182 55.5819 60.5259 55.9536 60.5259 56.3726C60.5259 56.6472 60.4715 56.9183 60.3626 57.1858C60.256 57.4533 60.0655 57.7504 59.7908 58.0771C59.5162 58.4015 59.1291 58.7909 58.6296 59.2455L57.5678 60.286V60.3357H60.6218V61.5928H55.4371ZM64.5875 61.7526C63.9767 61.7502 63.4512 61.5999 63.0108 61.3016C62.5729 61.0033 62.2355 60.5712 61.9988 60.0054C61.7644 59.4396 61.6484 58.759 61.6507 57.9635C61.6507 57.1704 61.7679 56.4945 62.0023 55.9358C62.2391 55.3771 62.5764 54.9521 63.0144 54.661C63.4547 54.3674 63.9791 54.2206 64.5875 54.2206C65.196 54.2206 65.7192 54.3674 66.1571 54.661C66.5975 54.9545 66.936 55.3807 67.1728 55.9394C67.4095 56.4957 67.5267 57.1704 67.5243 57.9635C67.5243 58.7613 67.406 59.4432 67.1692 60.009C66.9348 60.5748 66.5987 61.0068 66.1607 61.3051C65.7227 61.6034 65.1983 61.7526 64.5875 61.7526ZM64.5875 60.4777C65.0042 60.4777 65.3368 60.2682 65.5854 59.8492C65.834 59.4301 65.9571 58.8016 65.9547 57.9635C65.9547 57.4119 65.8979 56.9526 65.7843 56.5857C65.673 56.2187 65.5144 55.9429 65.3084 55.7583C65.1048 55.5736 64.8645 55.4813 64.5875 55.4813C64.1732 55.4813 63.8418 55.6884 63.5932 56.1027C63.3446 56.517 63.2192 57.1373 63.2168 57.9635C63.2168 58.5222 63.2724 58.9886 63.3837 59.3627C63.4973 59.7343 63.6571 60.0137 63.8631 60.2007C64.0691 60.3854 64.3105 60.4777 64.5875 60.4777Z" fill="black"/>
<path d="M72.9008 32.3057C72.9008 34.0316 72.0338 34.8057 70.1008 34.8057C68.1678 34.8057 67.3008 34.0316 67.3008 32.3057C67.3008 30.5798 68.1678 29.1807 70.1008 29.1807C72.0338 29.1807 72.9008 30.5798 72.9008 32.3057Z" fill="#D9D9D9"/>
<g filter="url(#filter2_d_990_4117)">
<rect x="68" y="25.4307" width="4.2" height="8.75" rx="2.1" fill="white"/>
</g>
<path d="M54.6996 32.3057C54.6996 34.0316 53.8326 34.8057 51.8996 34.8057C49.9666 34.8057 49.0996 34.0316 49.0996 32.3057C49.0996 30.5798 49.9666 29.1807 51.8996 29.1807C53.8326 29.1807 54.6996 30.5798 54.6996 32.3057Z" fill="#D9D9D9"/>
<g filter="url(#filter3_d_990_4117)">
<rect x="49.8008" y="25.4307" width="4.2" height="8.75" rx="2.1" fill="white"/>
</g>
<path d="M57.0582 40.7034V49.4307H55.4645L51.6676 43.9378H51.6037V49.4307H49.7585V40.7034H51.3778L55.1449 46.192H55.2216V40.7034H57.0582ZM61.506 49.5585C60.8441 49.5585 60.2717 49.4179 59.7887 49.1366C59.3086 48.8525 58.9379 48.4577 58.6765 47.952C58.4151 47.4434 58.2844 46.854 58.2844 46.1835C58.2844 45.5074 58.4151 44.9165 58.6765 44.4108C58.9379 43.9023 59.3086 43.5074 59.7887 43.2261C60.2717 42.942 60.8441 42.8 61.506 42.8C62.168 42.8 62.739 42.942 63.2191 43.2261C63.7021 43.5074 64.0742 43.9023 64.3356 44.4108C64.5969 44.9165 64.7276 45.5074 64.7276 46.1835C64.7276 46.854 64.5969 47.4434 64.3356 47.952C64.0742 48.4577 63.7021 48.8525 63.2191 49.1366C62.739 49.4179 62.168 49.5585 61.506 49.5585ZM61.5146 48.1523C61.8157 48.1523 62.0671 48.067 62.2688 47.8966C62.4705 47.7233 62.6225 47.4875 62.7248 47.1892C62.8299 46.8909 62.8825 46.5514 62.8825 46.1707C62.8825 45.79 62.8299 45.4506 62.7248 45.1523C62.6225 44.854 62.4705 44.6182 62.2688 44.4449C62.0671 44.2716 61.8157 44.1849 61.5146 44.1849C61.2106 44.1849 60.9549 44.2716 60.7475 44.4449C60.543 44.6182 60.3881 44.854 60.283 45.1523C60.1808 45.4506 60.1296 45.79 60.1296 46.1707C60.1296 46.5514 60.1808 46.8909 60.283 47.1892C60.3881 47.4875 60.543 47.7233 60.7475 47.8966C60.9549 48.067 61.2106 48.1523 61.5146 48.1523ZM71.7994 42.8852L69.511 49.4307H67.4656L65.1772 42.8852H67.0948L68.4542 47.5684H68.5224L69.8775 42.8852H71.7994Z" fill="url(#paint3_linear_990_4117)"/>
<defs>
<filter id="filter0_i_990_4117" x="40" y="30.2617" width="42" height="24" filterUnits="userSpaceOnUse" color-interpolation-filters="sRGB">
<feFlood flood-opacity="0" result="BackgroundImageFix"/>
<feBlend mode="normal" in="SourceGraphic" in2="BackgroundImageFix" result="shape"/>
<feColorMatrix in="SourceAlpha" type="matrix" values="0 0 0 0 0 0 0 0 0 0 0 0 0 0 0 0 0 0 127 0" result="hardAlpha"/>
<feOffset dy="4"/>
<feGaussianBlur stdDeviation="2"/>
<feComposite in2="hardAlpha" operator="arithmetic" k2="-1" k3="1"/>
<feColorMatrix type="matrix" values="0 0 0 0 1 0 0 0 0 1 0 0 0 0 1 0 0 0 0.25 0"/>
<feBlend mode="normal" in2="shape" result="effect1_innerShadow_990_4117"/>
</filter>
<filter id="filter1_bdi_990_4117" x="0" y="0.680664" width="122" height="108.75" filterUnits="userSpaceOnUse" color-interpolation-filters="sRGB">
<feFlood flood-opacity="0" result="BackgroundImageFix"/>
<feGaussianBlur in="BackgroundImageFix" stdDeviation="15"/>
<feComposite in2="SourceAlpha" operator="in" result="effect1_backgroundBlur_990_4117"/>
<feColorMatrix in="SourceAlpha" type="matrix" values="0 0 0 0 0 0 0 0 0 0 0 0 0 0 0 0 0 0 127 0" result="hardAlpha"/>
<feOffset dy="4"/>
<feGaussianBlur stdDeviation="20"/>
<feComposite in2="hardAlpha" operator="out"/>
<feColorMatrix type="matrix" values="0 0 0 0 0 0 0 0 0 0 0 0 0 0 0 0 0 0 0.09 0"/>
<feBlend mode="normal" in2="effect1_backgroundBlur_990_4117" result="effect2_dropShadow_990_4117"/>
<feBlend mode="normal" in="SourceGraphic" in2="effect2_dropShadow_990_4117" result="shape"/>
<feColorMatrix in="SourceAlpha" type="matrix" values="0 0 0 0 0 0 0 0 0 0 0 0 0 0 0 0 0 0 127 0" result="hardAlpha"/>
<feOffset dy="16"/>
<feGaussianBlur stdDeviation="6.15"/>
<feComposite in2="hardAlpha" operator="arithmetic" k2="-1" k3="1"/>
<feColorMatrix type="matrix" values="0 0 0 0 1 0 0 0 0 1 0 0 0 0 1 0 0 0 0.55 0"/>
<feBlend mode="normal" in2="shape" result="effect3_innerShadow_990_4117"/>
</filter>
<filter id="filter2_d_990_4117" x="62.2" y="23.6307" width="15.7992" height="20.35" filterUnits="userSpaceOnUse" color-interpolation-filters="sRGB">
<feFlood flood-opacity="0" result="BackgroundImageFix"/>
<feColorMatrix in="SourceAlpha" type="matrix" values="0 0 0 0 0 0 0 0 0 0 0 0 0 0 0 0 0 0 127 0" result="hardAlpha"/>
<feOffset dy="4"/>
<feGaussianBlur stdDeviation="2.9"/>
<feComposite in2="hardAlpha" operator="out"/>
<feColorMatrix type="matrix" values="0 0 0 0 0 0 0 0 0 0 0 0 0 0 0 0 0 0 0.25 0"/>
<feBlend mode="normal" in2="BackgroundImageFix" result="effect1_dropShadow_990_4117"/>
<feBlend mode="normal" in="SourceGraphic" in2="effect1_dropShadow_990_4117" result="shape"/>
</filter>
<filter id="filter3_d_990_4117" x="44.0008" y="23.6307" width="15.7992" height="20.35" filterUnits="userSpaceOnUse" color-interpolation-filters="sRGB">
<feFlood flood-opacity="0" result="BackgroundImageFix"/>
<feColorMatrix in="SourceAlpha" type="matrix" values="0 0 0 0 0 0 0 0 0 0 0 0 0 0 0 0 0 0 127 0" result="hardAlpha"/>
<feOffset dy="4"/>
<feGaussianBlur stdDeviation="2.9"/>
<feComposite in2="hardAlpha" operator="out"/>
<feColorMatrix type="matrix" values="0 0 0 0 0 0 0 0 0 0 0 0 0 0 0 0 0 0 0.25 0"/>
<feBlend mode="normal" in2="BackgroundImageFix" result="effect1_dropShadow_990_4117"/>
<feBlend mode="normal" in="SourceGraphic" in2="effect1_dropShadow_990_4117" result="shape"/>
</filter>
<linearGradient id="paint0_linear_990_4117" x1="61" y1="30.2617" x2="61" y2="50.2617" gradientUnits="userSpaceOnUse">
<stop stop-color="#FF0000"/>
<stop offset="1" stop-color="#FF0000"/>
</linearGradient>
<linearGradient id="paint1_linear_990_4117" x1="43.84" y1="31.9459" x2="78.0648" y2="52.1993" gradientUnits="userSpaceOnUse">
<stop stop-color="#FF9900"/>
<stop offset="1" stop-color="#FF004D"/>
</linearGradient>
<linearGradient id="paint2_linear_990_4117" x1="61" y1="36.6807" x2="61" y2="65.4307" gradientUnits="userSpaceOnUse">
<stop stop-color="white"/>
<stop offset="1" stop-color="white" stop-opacity="0.6"/>
</linearGradient>
<linearGradient id="paint3_linear_990_4117" x1="61" y1="37.4307" x2="61" y2="52.4307" gradientUnits="userSpaceOnUse">
<stop stop-color="#FFD900"/>
<stop offset="1" stop-color="#F37E00" stop-opacity="0.7"/>
</linearGradient>
</defs>
</svg>
