<svg width="25" height="25" viewBox="0 0 25 25" fill="none" xmlns="http://www.w3.org/2000/svg">
<path d="M9.81251 21.204V18.1463C9.81251 17.3657 10.4499 16.733 11.2362 16.733H14.1103C14.4879 16.733 14.85 16.8819 15.117 17.1469C15.384 17.412 15.534 17.7714 15.534 18.1463V21.204C15.5316 21.5285 15.6598 21.8405 15.8901 22.0708C16.1204 22.3011 16.4338 22.4307 16.7607 22.4307H18.7216C19.6374 22.433 20.5165 22.0735 21.1649 21.4315C21.8133 20.7894 22.1777 19.9176 22.1777 19.0085V10.2975C22.1777 9.56312 21.8498 8.86651 21.2824 8.39533L14.6118 3.10653C13.4514 2.17923 11.7888 2.20917 10.6631 3.17764L4.14475 8.39533C3.55048 8.85262 3.19529 9.5513 3.17773 10.2975V18.9996C3.17773 20.8945 4.72512 22.4307 6.63391 22.4307H8.55002C9.22896 22.4307 9.78073 21.8869 9.78565 21.2129L9.81251 21.204Z" fill="#8E8E8E"/>
</svg>
