<svg width="25" height="25" viewBox="0 0 25 25" fill="none" xmlns="http://www.w3.org/2000/svg">
<path d="M17.0445 2.43066C20.1335 2.43066 21.8535 4.21066 21.8535 7.26066V17.5907C21.8535 20.6907 20.1335 22.4307 17.0445 22.4307H8.66352C5.62352 22.4307 3.85352 20.6907 3.85352 17.5907V7.26066C3.85352 4.21066 5.62352 2.43066 8.66352 2.43066H17.0445ZM8.93352 16.1707C8.63352 16.1407 8.34352 16.2807 8.18352 16.5407C8.02352 16.7907 8.02352 17.1207 8.18352 17.3807C8.34352 17.6307 8.63352 17.7807 8.93352 17.7407H16.7735C17.1725 17.7007 17.4735 17.3597 17.4735 16.9607C17.4735 16.5507 17.1725 16.2107 16.7735 16.1707H8.93352ZM16.7735 11.6097H8.93352C8.50252 11.6097 8.15352 11.9607 8.15352 12.3907C8.15352 12.8207 8.50252 13.1707 8.93352 13.1707H16.7735C17.2035 13.1707 17.5535 12.8207 17.5535 12.3907C17.5535 11.9607 17.2035 11.6097 16.7735 11.6097ZM11.9225 7.08066H8.93352V7.09066C8.50252 7.09066 8.15352 7.44066 8.15352 7.87066C8.15352 8.30066 8.50252 8.65066 8.93352 8.65066H11.9225C12.3535 8.65066 12.7035 8.30066 12.7035 7.85966C12.7035 7.43066 12.3535 7.08066 11.9225 7.08066Z" fill="#353535"/>
</svg>
