<svg width="25" height="25" viewBox="0 0 25 25" fill="none" xmlns="http://www.w3.org/2000/svg">
<path d="M22.6938 20.7207L18.9838 17.0407C20.4239 15.2451 21.1213 12.966 20.9326 10.672C20.7439 8.37799 19.6835 6.24347 17.9693 4.70733C16.2552 3.1712 14.0176 2.3502 11.7167 2.41316C9.41583 2.47612 7.22651 3.41825 5.59893 5.04583C3.97135 6.67341 3.02922 8.86273 2.96626 11.1636C2.9033 13.4645 3.7243 15.7021 5.26044 17.4162C6.79657 19.1304 8.93109 20.1908 11.2251 20.3795C13.5191 20.5682 15.7982 19.8708 17.5938 18.4307L21.2738 22.1107C21.3668 22.2044 21.4774 22.2788 21.5992 22.3296C21.7211 22.3804 21.8518 22.4065 21.9838 22.4065C22.1158 22.4065 22.2465 22.3804 22.3684 22.3296C22.4902 22.2788 22.6008 22.2044 22.6938 22.1107C22.874 21.9242 22.9748 21.675 22.9748 21.4157C22.9748 21.1564 22.874 20.9072 22.6938 20.7207V20.7207ZM11.9838 18.4307C10.5993 18.4307 9.24594 18.0201 8.0948 17.251C6.94366 16.4818 6.04645 15.3886 5.51663 14.1095C4.98682 12.8304 4.8482 11.4229 5.11829 10.0651C5.38839 8.70719 6.05508 7.45991 7.03404 6.48094C8.01301 5.50198 9.26029 4.83529 10.6182 4.56519C11.976 4.2951 13.3835 4.43372 14.6626 4.96353C15.9417 5.49335 17.0349 6.39055 17.8041 7.5417C18.5732 8.69284 18.9838 10.0462 18.9838 11.4307C18.9838 13.2872 18.2463 15.0677 16.9335 16.3804C15.6208 17.6932 13.8403 18.4307 11.9838 18.4307V18.4307Z" fill="#8E8E8E"/>
</svg>
